<?xml version='1.0' encoding='utf-8'?>
<!DOCTYPE svg PUBLIC '-//W3C//DTD SVG 1.1//EN' 'http://www.w3.org/Graphics/SVG/1.1/DTD/svg11.dtd'>
<!-- Uploaded to: SVG Repo, www.svgrepo.com, Generator: SVG Repo Mixer Tools -->
<svg fill="#000000" height="800px" width="800px" version="1.1" xmlns="http://www.w3.org/2000/svg" viewBox="0 0 512 512" xmlns:xlink="http://www.w3.org/1999/xlink" enable-background="new 0 0 512 512">
  <g>
    <g>
      <path d="m461.2,369.5h-408.4v-316.7h408.3v316.7h0.1zm-125.2,91.7h-158c10.2-29.3 41.7-50.8 79-50.8 37.2,0 68.8,21.4 79,50.8zm126-449.2h-410c-22.1,0-40,17.9-40,40v318.4c0,22.1 17.9,40 40,40h109.9c-17.6,19.4-28.2,44.2-28.2,71.2 0,11.3 9.1,20.4 20.4,20.4h205.7c11.3,0 20.4-9.1 20.4-20.4 0-27-10.6-51.8-28.2-71.2h110c22.1,0 40-17.9 40-40v-318.4c0-22.1-17.9-40-40-40z"/>
    </g>
  </g>
  <text x="50%" y="47%" font-size="200" fill="black" text-anchor="middle" dominant-baseline="middle" font-weight="bold">UTS</text>
</svg>